<?xml version="1.0" standalone="no"?><!DOCTYPE svg PUBLIC "-//W3C//DTD SVG 1.1//EN" "http://www.w3.org/Graphics/SVG/1.1/DTD/svg11.dtd"><svg t="1735563945426" class="icon" viewBox="0 0 1024 1024" version="1.1" xmlns="http://www.w3.org/2000/svg" p-id="14747" xmlns:xlink="http://www.w3.org/1999/xlink" width="200" height="200"><path d="M298.667 896V128h426.666v768z" fill="#f4ea2a" p-id="14748"></path><path d="M993.707 111.36c-13.227-23.467-43.094-26.027-64.854-26.027H362.667A106.667 106.667 0 0 0 256 192v277.333L40.533 842.667c-6.4 10.666-25.6 43.946-10.24 69.973 13.227 23.467 43.094 26.027 64.854 26.027h566.186A106.667 106.667 0 0 0 768 832V554.667l215.467-373.334c6.4-11.093 25.6-43.946 10.24-69.973zM66.987 891.733c0-0.426-1.28-7.68 10.24-27.733L256 554.667V832c0 24.32 8.533 46.08 21.76 64H95.147c-22.614 0-27.734-4.267-28.16-4.267zM725.333 832c0 35.413-28.586 64-64 64H362.667c-35.414 0-64-28.587-64-64V192c0-35.413 28.586-64 64-64H661.76c34.987 0 63.573 28.587 63.573 64v640z m221.44-672L768 469.333V192c0-23.893-8.533-46.08-21.76-64h183.04c22.613 0 27.733 4.267 27.733 4.267 0 0.426 1.28 7.68-10.24 27.733z" fill="#f4ea2a" p-id="14749"></path></svg>