<?xml version="1.0" standalone="no"?><!DOCTYPE svg PUBLIC "-//W3C//DTD SVG 1.1//EN" "http://www.w3.org/Graphics/SVG/1.1/DTD/svg11.dtd"><svg t="1735379777133" class="icon" viewBox="0 0 1024 1024" version="1.1" xmlns="http://www.w3.org/2000/svg" p-id="18909" xmlns:xlink="http://www.w3.org/1999/xlink" width="200" height="200"><path d="M320 480h106.666667a32 32 0 0 1 0 64h-106.666667a32 32 0 0 1 0-64z m277.333333 0h106.666667a32 32 0 0 1 0 64h-106.666667a32 32 0 0 1 0-64z m-85.333333 0a32 32 0 1 1 0 64 32 32 0 0 1 0-64z m0-192a32 32 0 0 1 32 32v106.666667a32 32 0 0 1-64 0v-106.666667a32 32 0 0 1 32-32z m0 277.333333a32 32 0 0 1 32 32v106.666667a32 32 0 0 1-64 0v-106.666667a32 32 0 0 1 32-32z" p-id="18910" fill="#ffffff"></path></svg>