<?xml version="1.0" standalone="no"?><!DOCTYPE svg PUBLIC "-//W3C//DTD SVG 1.1//EN" "http://www.w3.org/Graphics/SVG/1.1/DTD/svg11.dtd"><svg t="1736041113670" class="icon" viewBox="0 0 1024 1024" version="1.1" xmlns="http://www.w3.org/2000/svg" p-id="12036" xmlns:xlink="http://www.w3.org/1999/xlink" width="200" height="200"><path d="M896 170.666667H298.666667c-70.4 0-128 57.6-128 128v597.333333c0 70.4 57.6 128 128 128h597.333333c70.4 0 128-57.6 128-128V298.666667c0-70.4-57.6-128-128-128m0 85.333333c23.125333 0 42.666667 19.541333 42.666667 42.666667v597.333333c0 23.125333-19.541333 42.666667-42.666667 42.666667H298.666667c-23.125333 0-42.666667-19.541333-42.666667-42.666667V298.666667c0-23.125333 19.541333-42.666667 42.666667-42.666667h597.333333" fill="#ffffff" p-id="12037"></path><path d="M170.666667 768h-42.666667c-23.125333 0-42.666667-19.541333-42.666667-42.666667V128c0-23.125333 19.541333-42.666667 42.666667-42.666667h597.333333c23.125333 0 42.666667 19.541333 42.666667 42.666667v42.496h85.333333V128c0-70.4-57.6-128-128-128H128C57.6 0 0 57.6 0 128v597.333333c0 70.4 57.6 128 128 128h42.666667V768z" fill="#ffffff" p-id="12038"></path><path d="M554.666667 768V426.666667c0-23.466667 19.2-42.666667 42.666666-42.666667s42.666667 19.2 42.666667 42.666667v341.333333c0 23.466667-19.2 42.666667-42.666667 42.666667s-42.666667-19.2-42.666666-42.666667" fill="#ffffff" p-id="12039"></path><path d="M768 640H426.666667c-23.466667 0-42.666667-19.2-42.666667-42.666667s19.2-42.666667 42.666667-42.666666h341.333333c23.466667 0 42.666667 19.2 42.666667 42.666666s-19.2 42.666667-42.666667 42.666667" fill="#ffffff" p-id="12040"></path></svg>