<?xml version="1.0" standalone="no"?><!DOCTYPE svg PUBLIC "-//W3C//DTD SVG 1.1//EN" "http://www.w3.org/Graphics/SVG/1.1/DTD/svg11.dtd"><svg t="1735379651265" class="icon" viewBox="0 0 1024 1024" version="1.1" xmlns="http://www.w3.org/2000/svg" p-id="14274" xmlns:xlink="http://www.w3.org/1999/xlink" width="200" height="200"><path d="M635.578182 121.576727c0 44.497455-36.770909 80.570182-82.245818 80.570182-45.474909 0-82.245818-36.072727-82.245819-80.570182 0-44.544 36.770909-80.616727 82.199273-80.616727s82.245818 36.072727 82.245818 80.616727h0.046546z m285.463273 97.652364a19.828364 19.828364 0 0 1 21.038545 18.525091 19.828364 19.828364 0 0 1-16.756364 20.433454c-29.975273 4.794182-59.997091 9.681455-89.925818 14.894546-29.928727 5.12-59.857455 10.426182-89.972363 14.894545l-89.925819 14.568728c-3.909818 0.605091-7.773091 1.303273-11.682909 1.954909v175.848727c0 9.541818 2.094545 18.850909 6.190546 27.368727a15080.727273 15080.727273 0 0 0 64.884363 134.144l6.050909 12.334546 3.025455 6.144c8.471273 16.011636 12.474182 33.978182 11.636364 52.130909a99.048727 99.048727 0 0 1-37.981091 73.076363L603.880727 847.127273c-10.426182 6.888727-24.669091 7.028364-34.210909-0.930909a27.136 27.136 0 0 1-0.232727-42.356364l42.821818-35.002182 21.364364-17.640727 10.612363-8.843636c3.351273-2.792727 7.912727-6.516364 8.657455-7.540364a28.578909 28.578909 0 0 0 7.447273-23.133091 26.810182 26.810182 0 0 0-3.909819-10.612364c-0.651636-0.930909-0.977455-1.303273-1.768727-2.56l-3.816727-5.771636-7.586909-11.450182c-15.36-23.645091-53.201455-79.592727-69.864727-104.168727-2.932364-4.328727-9.774545-2.885818-10.65891 2.234182-5.911273 33.512727-20.666182 117.108364-25.6 147.828363-12.567273 76.939636-25.739636 153.925818-37.46909 231.005091a28.811636 28.811636 0 0 1-26.437819 24.762182 27.554909 27.554909 0 0 1-21.131636-7.912727 28.020364 28.020364 0 0 1-8.285091-21.131637c4.654545-78.242909 7.912727-156.672 11.636364-235.054545 2.048-39.191273 3.444364-78.382545 4.747636-117.620364 1.024-27.415273 1.908364-54.784 2.653091-82.199272V304.64L450.373818 302.545455l-89.925818-14.615273c-30.068364-4.421818-59.997091-9.728-89.925818-14.801455-29.975273-5.259636-59.950545-10.146909-89.972364-14.941091a19.828364 19.828364 0 0 1-16.523636-22.481454 19.921455 19.921455 0 0 1 20.712727-16.430546h0.279273l181.992727 9.495273 91.089455 4.747636c30.347636 1.582545 159.371636 1.582545 189.719272 0l91.042909-4.747636 182.085819-9.495273h0.093091z" fill="#ffffff" p-id="14275"></path></svg>