<?xml version="1.0" standalone="no"?><!DOCTYPE svg PUBLIC "-//W3C//DTD SVG 1.1//EN" "http://www.w3.org/Graphics/SVG/1.1/DTD/svg11.dtd"><svg t="1737290630248" class="icon" viewBox="0 0 1024 1024" version="1.1" xmlns="http://www.w3.org/2000/svg" p-id="4431" xmlns:xlink="http://www.w3.org/1999/xlink" width="200" height="200"><path d="M911 0H453c-61.8 0-112 50.2-112 112v230H80c-44 0-80 36-80 80v522c0 44 36 80 80 80h522c44 0 80-36 80-80V682h229c61.8 0 112-50.2 112-112V112c0-61.8-50.2-112-112-112z m48 570c0 26.5-21.5 48-48 48H682V422c0-44-36-80-80-80H405V112c0-26.5 21.5-48 48-48h458c26.5 0 48 21.5 48 48v458z" fill="#bcf429" p-id="4432"></path></svg>