<?xml version="1.0" standalone="no"?><!DOCTYPE svg PUBLIC "-//W3C//DTD SVG 1.1//EN" "http://www.w3.org/Graphics/SVG/1.1/DTD/svg11.dtd"><svg t="1737027972371" class="icon" viewBox="0 0 1024 1024" version="1.1" xmlns="http://www.w3.org/2000/svg" p-id="7361" xmlns:xlink="http://www.w3.org/1999/xlink" width="200" height="200"><path d="M510.851339 63.865563c-246.902296 0-447.055872 200.738907-447.055872 448.356494 0 247.63089 200.157669 448.359564 447.055872 448.359564 246.912529 0 447.054849-200.728674 447.054849-448.359564C957.906188 264.60447 757.763868 63.865563 510.851339 63.865563zM510.851339 260.022105c30.858822 0 55.882751 25.092491 55.882751 56.042387 0 30.956036-25.02393 56.044434-55.882751 56.044434s-55.882751-25.088398-55.882751-56.044434C454.967564 285.11562 479.992517 260.022105 510.851339 260.022105zM566.73409 764.417917l-55.69037 0c-0.064468 0-0.128937 0.005117-0.192382 0.005117-0.065492 0-0.12996-0.005117-0.193405-0.005117l-55.689347 0c-15.432481 0-27.939329-12.542664-27.939329-28.019147 0-15.47546 12.506848-28.025287 27.939329-28.025287l27.944446 0L482.913033 484.200864l-27.944446 0c-15.432481 0-27.939329-12.548804-27.939329-28.02017 0-15.476483 12.506848-28.025287 27.939329-28.025287l55.882751 0c15.431457 0 27.940352 12.548804 27.940352 28.025287 0 0.294712-0.014326 0.583285-0.022513 0.873903 0.00921 0.290619 0.022513 0.580215 0.022513 0.87288l0 250.447029 27.943422 0c15.427364 0 27.939329 12.549827 27.939329 28.025287C594.673419 751.875253 582.161455 764.417917 566.73409 764.417917z" fill="#ffffff" p-id="7362"></path></svg>