<?xml version="1.0" standalone="no"?><!DOCTYPE svg PUBLIC "-//W3C//DTD SVG 1.1//EN" "http://www.w3.org/Graphics/SVG/1.1/DTD/svg11.dtd"><svg t="1737027940990" class="icon" viewBox="0 0 1024 1024" version="1.1" xmlns="http://www.w3.org/2000/svg" p-id="5311" xmlns:xlink="http://www.w3.org/1999/xlink" width="200" height="200"><path d="M160 640l-64-32V832H192v-64h640v64h96V608l-64 32-32 32H192l-32-32z" fill="#ffffff" opacity=".1" p-id="5312"></path><path d="M96 512v-32L64 512h32zM192 512h32L192 480V512z m-96 320H64l32 32V832zM192 832v32l32-32H192z m0-64v-32l-32 32H192z m640 0h32l-32-32v32z m0 64h-32l32 32V832z m96 0v32l32-32h-32z m0-320h32l-32-32V512zM832 512v-32l-32 32h32z m0 64v32l32-32H832zM192 576h-32l32 32V576z m-96-32H192v-64H96v64zM128 832V512H64v320h64z m64-32H96v64H192v-64z m-32-32v64h64v-64h-64z m32 32h640v-64H192v64z m608-32v64h64v-64h-64z m32 96h96v-64H832v64z m128-32V512h-64v320h64z m-32-352H832v64h96v-64z m-128 32v64h64V512h-64z m32 32H192v64h640v-64zM160 512v64h64V512h-64zM864 256h-64V192h64v64z m-128 0h-64V192h64v64z m-128 0h-64V192h64v64z m-128 0h-64V192h64v64z m-128 0h-64V192h64v64z m-128 0h-64V192h64v64z" fill="#ffffff" p-id="5313"></path><path d="M64 224L192 128v192L64 224zM960 224L832 128v192l128-96z" fill="#ffffff" p-id="5314"></path></svg>