<?xml version="1.0" standalone="no"?><!DOCTYPE svg PUBLIC "-//W3C//DTD SVG 1.1//EN" "http://www.w3.org/Graphics/SVG/1.1/DTD/svg11.dtd"><svg t="1737027900943" class="icon" viewBox="0 0 1024 1024" version="1.1" xmlns="http://www.w3.org/2000/svg" p-id="4282" xmlns:xlink="http://www.w3.org/1999/xlink" width="200" height="200"><path d="M707.904 761.6H819.2a89.6 89.6 0 0 0 89.6-89.6V384a89.6 89.6 0 0 0-89.6-89.6h-192v53.056a128 128 0 0 1-128 128h-320a128 128 0 0 1-128-128V192a128 128 0 0 1 128-128h320a128 128 0 0 1 128 128v25.6h192A166.4 166.4 0 0 1 985.6 384v288a166.4 166.4 0 0 1-166.4 166.4h-111.296v73.6l-192-120 192-120v89.6zM179.2 140.8A51.2 51.2 0 0 0 128 192v155.456a51.2 51.2 0 0 0 51.2 51.2h320a51.2 51.2 0 0 0 51.2-51.2V192a51.2 51.2 0 0 0-51.2-51.2h-320z m0 437.504h155.456a128 128 0 0 1 128 128v155.392a128 128 0 0 1-128 128H179.2a128 128 0 0 1-128-128v-155.392a128 128 0 0 1 128-128z m0 76.8a51.2 51.2 0 0 0-51.2 51.2v155.392a51.2 51.2 0 0 0 51.2 51.2h155.456a51.2 51.2 0 0 0 51.2-51.2v-155.392a51.2 51.2 0 0 0-51.2-51.2H179.2z" fill="#ffffff" p-id="4283"></path></svg>