<?xml version="1.0" standalone="no"?><!DOCTYPE svg PUBLIC "-//W3C//DTD SVG 1.1//EN" "http://www.w3.org/Graphics/SVG/1.1/DTD/svg11.dtd"><svg t="1735563861559" class="icon" viewBox="0 0 1024 1024" version="1.1" xmlns="http://www.w3.org/2000/svg" p-id="6976" xmlns:xlink="http://www.w3.org/1999/xlink" width="200" height="200"><path d="M863.744 896h-254.976c-17.92 0-31.744-14.336-31.744-31.744V486.912c0-22.528-18.432-40.96-40.96-40.96H159.744c-17.92 0-32.256-14.336-32.256-32.256V160.256c0-17.92 14.336-32.256 32.256-32.256h704c17.92 0 31.744 14.336 31.744 31.744v704c0.512 17.92-13.824 32.256-31.744 32.256z" fill="#d81e06" p-id="6977"></path><path d="M482.304 896h-322.56c-17.92 0-32.256-14.336-32.256-31.744v-322.56c0-17.92 14.336-32.256 32.256-32.256h322.56c17.92 0 32.256 14.336 32.256 32.256v322.56c0 17.408-14.336 31.744-32.256 31.744z" fill="#d81e06" p-id="6978"></path></svg>