<?xml version="1.0" standalone="no"?><!DOCTYPE svg PUBLIC "-//W3C//DTD SVG 1.1//EN" "http://www.w3.org/Graphics/SVG/1.1/DTD/svg11.dtd"><svg t="1737292427570" class="icon" viewBox="0 0 1024 1024" version="1.1" xmlns="http://www.w3.org/2000/svg" p-id="11304" xmlns:xlink="http://www.w3.org/1999/xlink" width="200" height="200"><path d="M332.9024 203.6736h602.8288c26.4192 0 47.8208-21.2992 47.8208-47.8208v-71.68c0-26.4192-21.2992-47.8208-47.8208-47.8208H332.9024c-26.4192 0-47.8208 21.2992-47.8208 47.8208v71.68c0 26.5216 21.2992 47.8208 47.8208 47.8208zM940.544 428.3392H337.6128c-26.4192 0-47.8208 21.2992-47.8208 47.8208v71.68c0 26.4192 21.2992 47.8208 47.8208 47.8208h602.8288c26.4192 0 47.8208-21.2992 47.8208-47.8208v-71.68c0.1024-26.4192-21.4016-47.8208-47.7184-47.8208zM940.544 820.3264H337.6128c-26.4192 0-47.8208 21.2992-47.8208 47.8208v71.68c0 26.4192 21.2992 47.8208 47.8208 47.8208h602.8288c26.4192 0 47.8208-21.2992 47.8208-47.8208v-71.68c0.1024-26.5216-21.4016-47.8208-47.7184-47.8208zM155.2384 36.4544h-71.68C57.1392 36.4544 35.84 57.7536 35.84 84.1728v71.68c0 26.4192 21.2992 47.8208 47.8208 47.8208h71.68c26.4192 0 47.8208-21.2992 47.8208-47.8208v-71.68c0-26.4192-21.504-47.7184-47.9232-47.7184zM155.2384 428.3392h-71.68C57.1392 428.3392 35.84 449.7408 35.84 476.16v71.68c0 26.4192 21.2992 47.8208 47.8208 47.8208h71.68c26.4192 0 47.8208-21.2992 47.8208-47.8208v-71.68c0-26.4192-21.504-47.8208-47.9232-47.8208z m-9.5232 109.9776H93.0816v-52.6336h52.6336v52.6336zM155.2384 820.3264h-71.68c-26.4192 0-47.8208 21.2992-47.8208 47.8208v71.68c0 26.4192 21.2992 47.8208 47.8208 47.8208h71.68c26.4192 0 47.8208-21.2992 47.8208-47.8208v-71.68c0.1024-26.5216-21.4016-47.8208-47.8208-47.8208z m-9.5232 109.9776H93.0816v-52.6336h52.6336v52.6336z" p-id="11305" fill="#cdcdcd"></path></svg>