<?xml version="1.0" standalone="no"?><!DOCTYPE svg PUBLIC "-//W3C//DTD SVG 1.1//EN" "http://www.w3.org/Graphics/SVG/1.1/DTD/svg11.dtd"><svg t="1736041148462" class="icon" viewBox="0 0 1024 1024" version="1.1" xmlns="http://www.w3.org/2000/svg" p-id="13105" xmlns:xlink="http://www.w3.org/1999/xlink" width="200" height="200"><path d="M496 368H224l-2.4 0.08a32 32 0 0 0-29.504 29.408L192 400v224l0.08 2.4a32 32 0 0 0 29.408 29.504L224 656h272v96H224l-4-0.064a128 128 0 0 1-123.936-123.952L96 624V400l0.064-4a128 128 0 0 1 123.952-123.936L224 272h272v96z m160 496a48 48 0 0 1-96 0V160a48 48 0 0 1 96 0v704z m96-720a48 48 0 0 1-48 48H512a48 48 0 0 1 0-96h192a48 48 0 0 1 48 48z m0 736a48 48 0 0 1-48 48H512a48 48 0 0 1 0-96h192a48 48 0 0 1 48 48z m176-256a128 128 0 0 1-124 127.936L800 752h-80v-96h80a32 32 0 0 0 31.92-29.6L832 624V400a32 32 0 0 0-29.6-31.92L800 368h-80v-96h80a128 128 0 0 1 127.936 124L928 400v224z" fill="#ffffff" p-id="13106"></path></svg>