<?xml version="1.0" standalone="no"?><!DOCTYPE svg PUBLIC "-//W3C//DTD SVG 1.1//EN" "http://www.w3.org/Graphics/SVG/1.1/DTD/svg11.dtd"><svg t="1735379193639" class="icon" viewBox="0 0 1024 1024" version="1.1" xmlns="http://www.w3.org/2000/svg" p-id="5379" xmlns:xlink="http://www.w3.org/1999/xlink" width="200" height="200"><path d="M547.498667 562.346667a128 128 0 1 0 181.034666 180.992 128 128 0 0 0-181.034666-181.034667z m0-301.738667a42.666667 42.666667 0 0 1 0 60.373333l-90.453334 90.496L396.629333 351.146667l90.496-90.538667a42.666667 42.666667 0 0 1 60.330667 0z m241.365333 241.365333a213.333333 213.333333 0 1 1-328.832 33.194667L185.472 260.608a42.666667 42.666667 0 0 1 60.330667-60.330667l30.165333 30.165334 60.373333-60.330667a42.666667 42.666667 0 0 1 60.330667 60.330667L336.341333 290.816l184.021334 184.021333a213.418667 213.418667 0 0 1 268.501333 27.136z" fill="#ffffff" p-id="5380"></path></svg>